<svg width="430" height="140" viewBox="0 0 430 140" fill="none" xmlns="http://www.w3.org/2000/svg">
<g clip-path="url(#clip0_6923_72)">
<path d="M74.3896 40H72.3009C66.8466 40 63.4585 43.3731 63.4585 48.8014V92.4696C63.4585 113.173 57.1304 121.618 41.6161 121.618C26.1018 121.618 19.7736 113.135 19.7736 92.3392V48.8014C19.7736 43.3731 16.3853 40 10.9318 40H8.84202C3.38824 40 0 43.3731 0 48.8014V92.4696C0 124.009 14.002 140 41.6161 140C69.2302 140 83.2315 124.009 83.2315 92.4696V48.8014C83.2315 43.3731 79.8433 40 74.3896 40Z" fill="black"/>
<path d="M108.22 66.4985H106.489C100.9 66.4985 97.4285 70.0025 97.4285 75.6415V130.857C97.4285 136.496 100.9 140 106.489 140H108.22C113.808 140 117.28 136.496 117.28 130.857V75.6415C117.28 70.0025 113.808 66.4985 108.22 66.4985Z" fill="black"/>
<path d="M132.194 32.318C119.563 30.2891 109.595 20.3213 107.566 7.68969C107.528 7.45126 107.219 7.45126 107.18 7.68969C105.152 20.3213 95.1838 30.2891 82.5521 32.318C82.3135 32.3563 82.3135 32.6655 82.5521 32.7037C95.1838 34.7322 105.152 44.7004 107.18 57.332C107.219 57.5705 107.528 57.5705 107.566 57.332C109.595 44.7004 119.563 34.7322 132.194 32.7037C132.433 32.6655 132.433 32.3563 132.194 32.318ZM119.784 32.6073C113.468 33.6215 108.484 38.6056 107.47 44.9215C107.45 45.0407 107.296 45.0407 107.277 44.9215C106.262 38.6056 101.278 33.6215 94.9626 32.6073C94.8433 32.5882 94.8433 32.4336 94.9626 32.4145C101.278 31.4 106.262 26.4161 107.277 20.1003C107.296 19.9811 107.45 19.9811 107.47 20.1003C108.484 26.4161 113.468 31.4 119.784 32.4145C119.903 32.4336 119.903 32.5882 119.784 32.6073Z" fill="black"/>
<path d="M139.762 12.5964C133.446 13.6107 128.462 18.5948 127.448 24.9106C127.429 25.0298 127.274 25.0298 127.255 24.9106C126.241 18.5948 121.257 13.6107 114.941 12.5964C114.822 12.5773 114.822 12.4227 114.941 12.4036C121.257 11.3891 126.241 6.40522 127.255 0.0894075C127.274 -0.0298025 127.429 -0.0298025 127.448 0.0894075C128.462 6.40522 133.446 11.3891 139.762 12.4036C139.881 12.4227 139.881 12.5773 139.762 12.5964Z" fill="black"/>
<path d="M160.683 40H141.416C135.904 40 132.479 43.409 132.479 48.8954V131.105C132.479 136.591 135.904 140 141.416 140H143.528C149.04 140 152.464 136.591 152.464 131.105V111.645H160.815C194.252 111.645 207.891 101.267 207.891 75.8224C207.891 50.3783 194.214 40 160.683 40ZM187.642 75.5599C187.642 88.6496 181.405 93.0666 162.926 93.0666H152.464V58.1839H162.926C181.405 58.1839 187.642 62.568 187.642 75.5599Z" fill="black"/>
<path d="M282.107 58.503H280.523C275.011 58.503 271.588 61.9121 271.588 67.3984V67.4098C265.926 60.8848 257.158 57.0587 247.136 57.0587C236.925 57.0587 227.692 60.7928 221.136 67.5745C213.996 74.9597 210.222 85.6187 210.222 98.3981C210.222 111.233 214.018 121.954 221.2 129.4C227.793 136.235 237.05 140 247.268 140C257.1 140 265.933 136.126 271.594 129.696C271.595 129.703 271.595 131.549 271.595 131.556C271.779 136.778 275.164 140 280.523 140H282.107C287.619 140 291.044 136.592 291.044 131.106V67.3984C291.044 61.9121 287.619 58.503 282.107 58.503ZM271.983 98.3981C271.983 113.409 263.929 122.735 250.963 122.735C237.834 122.735 229.679 113.409 229.679 98.3981C229.679 83.4664 237.733 74.1915 250.699 74.1915C263.628 74.1915 271.983 83.6937 271.983 98.3981Z" fill="black"/>
<path d="M349.736 129.939C349.463 127.294 347.872 123.514 340.295 123.514C331.337 123.514 327.074 120.735 327.074 104.943V74.545H340.427C345.934 74.545 349.355 71.4362 349.355 66.4332C349.355 61.5108 345.934 58.4521 340.427 58.4521H327.09V48.901C327.09 43.4112 323.643 40 318.094 40H316.5C310.951 40 307.504 43.4112 307.504 48.901V58.4521H304.434C299.578 58.4521 296.561 61.5108 296.561 66.4332C296.561 71.4362 299.982 74.545 305.489 74.545H307.504V106.652C307.504 130.027 316.64 140 338.054 140C338.089 140 338.124 139.999 338.158 139.998C339.403 139.997 340.737 139.977 342.096 139.857C344.795 139.602 346.836 138.655 348.164 137.038C349.487 135.429 350.016 132.602 349.736 129.939Z" fill="black"/>
<path d="M397.157 57.1376C386.809 57.1376 379.426 61.2401 374.803 66.4103V48.901C374.803 43.4112 371.377 40 365.861 40H364.277C358.761 40 355.335 43.4112 355.335 48.901V131.099C355.335 136.589 358.761 140 364.277 140H365.861C371.377 140 374.803 136.589 374.803 131.099V98.1083C374.803 76.9873 384.923 74.5449 392.535 74.5449C405.318 74.5449 410.532 80.8772 410.532 96.4004V131.099C410.532 136.589 413.958 140 419.474 140H421.059C426.574 140 430 136.589 430 131.099V95.2167C430 69.593 419.257 57.1376 397.157 57.1376Z" fill="black"/>
</g>
<defs>
<clipPath id="clip0_6923_72">
<rect width="430" height="140" fill="white"/>
</clipPath>
</defs>
</svg>
